<mxfile host="Electron" agent="Mozilla/5.0 (X11; Linux x86_64) AppleWebKit/537.36 (KHTML, like Gecko) draw.io/26.1.1 Chrome/132.0.6834.210 Electron/34.3.2 Safari/537.36" version="26.1.1">
  <diagram name="Page-1" id="e6GBgIv4XCJGGFU7W60l">
    <mxGraphModel dx="1593" dy="2177" grid="1" gridSize="10" guides="1" tooltips="1" connect="1" arrows="1" fold="1" page="1" pageScale="1" pageWidth="827" pageHeight="1169" math="0" shadow="0">
      <root>
        <mxCell id="0" />
        <mxCell id="1" parent="0" />
        <mxCell id="S-2BuqM_WuFqO3oSfhrL-5" value="" style="strokeColor=#dddddd;shadow=1;strokeWidth=1;rounded=1;absoluteArcSize=1;arcSize=2;align=right;fontColor=#CCCCCC;" vertex="1" parent="1">
          <mxGeometry x="112" y="418.83000000000004" width="190" height="70.17" as="geometry" />
        </mxCell>
        <mxCell id="S-2BuqM_WuFqO3oSfhrL-6" value="&lt;div&gt;&lt;font style=&quot;font-size: 11px;&quot; color=&quot;#000000&quot;&gt;&lt;br&gt;&lt;/font&gt;&lt;/div&gt;&lt;font style=&quot;font-size: 11px;&quot;&gt;&lt;font color=&quot;#000000&quot;&gt;chess-api&lt;/font&gt;&lt;br&gt;Cloud Storage&lt;/font&gt;&lt;div&gt;&lt;span style=&quot;color: rgb(204, 204, 204); text-align: right;&quot;&gt;&lt;font style=&quot;font-size: 11px;&quot;&gt;Raw JSON Store&amp;nbsp; &amp;nbsp; &amp;nbsp;&amp;nbsp;&lt;/font&gt;&lt;/span&gt;&lt;/div&gt;" style="editableCssRules=.*;html=1;fontColor=#999999;shape=image;verticalLabelPosition=middle;verticalAlign=middle;labelPosition=right;align=left;spacingLeft=20;part=1;points=[];imageAspect=0;image=data:image/svg+xml,PHN2ZyB4bWxucz0iaHR0cDovL3d3dy53My5vcmcvMjAwMC9zdmciIHhtbG5zOnY9Imh0dHBzOi8vdmVjdGEuaW8vbmFubyIgd2lkdGg9IjIwIiBoZWlnaHQ9IjE2IiB2aWV3Qm94PSIwIDAgMjAgMTYiPiYjeGE7CTxzdHlsZSB0eXBlPSJ0ZXh0L2NzcyI+JiN4YTsJLnN0MHtmaWxsOiM0Mjg1ZjQ7fSYjeGE7CS5zdDF7ZmlsbDojNjY5ZGY2O30mI3hhOwkuc3Qye2ZpbGw6I2FlY2JmYTt9JiN4YTsJLnN0M3tmaWxsOiNmZmY7fSYjeGE7CTwvc3R5bGU+JiN4YTsJPHBhdGggY2xhc3M9InN0MiIgZD0iTTAgMGgyMHY3SDB6Ii8+JiN4YTsJPHBhdGggY2xhc3M9InN0MSIgZD0iTTE4IDBoMnY3aC0yeiIvPiYjeGE7CTxwYXRoIGNsYXNzPSJzdDAiIGQ9Ik0xOCA3bDItN2gtMnoiLz4mI3hhOwk8cGF0aCBjbGFzcz0ic3QxIiBkPSJNMCAwaDJ2N0gweiIvPiYjeGE7CTxnIGNsYXNzPSJzdDMiPiYjeGE7CQk8cGF0aCBkPSJNNCAzaDZ2MUg0eiIvPiYjeGE7CQk8cmVjdCB4PSIxMyIgeT0iMiIgd2lkdGg9IjMiIGhlaWdodD0iMyIgcng9IjEuNSIvPiYjeGE7CTwvZz4mI3hhOwk8cGF0aCBjbGFzcz0ic3QyIiBkPSJNMCA5aDIwdjdIMHoiLz4mI3hhOwk8cGF0aCBjbGFzcz0ic3QxIiBkPSJNMTggOWgydjdoLTJ6Ii8+JiN4YTsJPHBhdGggY2xhc3M9InN0MCIgZD0iTTE4IDE2bDItN2gtMnoiLz4mI3hhOwk8cGF0aCBjbGFzcz0ic3QxIiBkPSJNMCA5aDJ2N0gweiIvPiYjeGE7CTxnIGNsYXNzPSJzdDMiPiYjeGE7CQk8cGF0aCBkPSJNNCAxMmg2djFINHoiLz4mI3hhOwkJPHJlY3QgeD0iMTMiIHk9IjExIiB3aWR0aD0iMyIgaGVpZ2h0PSIzIiByeD0iMS41Ii8+JiN4YTsJPC9nPiYjeGE7PC9zdmc+;" vertex="1" parent="S-2BuqM_WuFqO3oSfhrL-5">
          <mxGeometry width="30" height="24" relative="1" as="geometry">
            <mxPoint x="15" y="18" as="offset" />
          </mxGeometry>
        </mxCell>
        <mxCell id="S-2BuqM_WuFqO3oSfhrL-46" style="edgeStyle=orthogonalEdgeStyle;rounded=0;orthogonalLoop=1;jettySize=auto;html=1;exitX=0.5;exitY=1;exitDx=0;exitDy=0;entryX=1;entryY=0.25;entryDx=0;entryDy=0;" edge="1" parent="1" source="S-2BuqM_WuFqO3oSfhrL-16" target="S-2BuqM_WuFqO3oSfhrL-3">
          <mxGeometry relative="1" as="geometry" />
        </mxCell>
        <mxCell id="S-2BuqM_WuFqO3oSfhrL-99" value="&lt;font style=&quot;font-size: 10px;&quot;&gt;Load Scripts Into VM&lt;/font&gt;" style="edgeLabel;html=1;align=center;verticalAlign=middle;resizable=0;points=[];" vertex="1" connectable="0" parent="S-2BuqM_WuFqO3oSfhrL-46">
          <mxGeometry x="0.1678" y="-1" relative="1" as="geometry">
            <mxPoint y="-7" as="offset" />
          </mxGeometry>
        </mxCell>
        <mxCell id="S-2BuqM_WuFqO3oSfhrL-51" style="edgeStyle=orthogonalEdgeStyle;rounded=0;orthogonalLoop=1;jettySize=auto;html=1;exitX=0.5;exitY=1;exitDx=0;exitDy=0;entryX=0.5;entryY=0;entryDx=0;entryDy=0;" edge="1" parent="1" source="S-2BuqM_WuFqO3oSfhrL-3" target="S-2BuqM_WuFqO3oSfhrL-12">
          <mxGeometry relative="1" as="geometry" />
        </mxCell>
        <mxCell id="S-2BuqM_WuFqO3oSfhrL-53" value="&lt;font style=&quot;font-size: 10px;&quot;&gt;Collect Logs from Python For Monitoring&lt;/font&gt;" style="edgeLabel;html=1;align=center;verticalAlign=middle;resizable=0;points=[];" vertex="1" connectable="0" parent="S-2BuqM_WuFqO3oSfhrL-51">
          <mxGeometry x="-0.4653" y="-2" relative="1" as="geometry">
            <mxPoint x="2" y="8" as="offset" />
          </mxGeometry>
        </mxCell>
        <mxCell id="S-2BuqM_WuFqO3oSfhrL-52" style="edgeStyle=orthogonalEdgeStyle;rounded=0;orthogonalLoop=1;jettySize=auto;html=1;exitX=0;exitY=0.75;exitDx=0;exitDy=0;entryX=0.5;entryY=0;entryDx=0;entryDy=0;" edge="1" parent="1" source="S-2BuqM_WuFqO3oSfhrL-3" target="S-2BuqM_WuFqO3oSfhrL-5">
          <mxGeometry relative="1" as="geometry">
            <mxPoint x="220" y="377.3333333333335" as="targetPoint" />
          </mxGeometry>
        </mxCell>
        <mxCell id="S-2BuqM_WuFqO3oSfhrL-55" value="&lt;font style=&quot;font-size: 10px;&quot;&gt;Store Chess.com&amp;nbsp;&lt;/font&gt;&lt;div&gt;&lt;font style=&quot;font-size: 10px;&quot;&gt;JSON responses&lt;/font&gt;&lt;/div&gt;" style="edgeLabel;html=1;align=center;verticalAlign=middle;resizable=0;points=[];" vertex="1" connectable="0" parent="S-2BuqM_WuFqO3oSfhrL-52">
          <mxGeometry x="-0.2782" y="4" relative="1" as="geometry">
            <mxPoint x="-31" y="19" as="offset" />
          </mxGeometry>
        </mxCell>
        <mxCell id="S-2BuqM_WuFqO3oSfhrL-3" value="" style="strokeColor=#dddddd;shadow=1;strokeWidth=1;rounded=1;absoluteArcSize=1;arcSize=2;fontSize=11;" vertex="1" parent="1">
          <mxGeometry x="298.3" y="309" width="200" height="75" as="geometry" />
        </mxCell>
        <mxCell id="S-2BuqM_WuFqO3oSfhrL-4" value="&lt;div&gt;&lt;font style=&quot;font-size: 11px;&quot; color=&quot;#000000&quot;&gt;&lt;br&gt;&lt;/font&gt;&lt;/div&gt;&lt;font style=&quot;font-size: 11px;&quot;&gt;&lt;font color=&quot;#000000&quot;&gt;Virtual Machine Name&lt;/font&gt;&lt;br&gt;Compute Engine&lt;/font&gt;&lt;div&gt;&lt;font style=&quot;font-size: 11px;&quot;&gt;Python Ingestion to GCS&lt;/font&gt;&lt;/div&gt;" style="editableCssRules=.*;html=1;fontColor=#999999;shape=image;verticalLabelPosition=middle;verticalAlign=middle;labelPosition=right;align=left;spacingLeft=20;part=1;points=[];imageAspect=0;image=data:image/svg+xml,PHN2ZyB4bWxucz0iaHR0cDovL3d3dy53My5vcmcvMjAwMC9zdmciIHhtbG5zOnY9Imh0dHBzOi8vdmVjdGEuaW8vbmFubyIgd2lkdGg9IjIwIiBoZWlnaHQ9IjIwIiB2aWV3Qm94PSIwIDAgMjAgMjAiPiYjeGE7CTxzdHlsZSB0eXBlPSJ0ZXh0L2NzcyI+JiN4YTsJLnN0MHtmaWxsOiM0Mjg1ZjQ7fSYjeGE7CS5zdDF7ZmlsbDojNjY5ZGY2O30mI3hhOwkuc3Qye2ZpbGw6I2FlY2JmYTt9JiN4YTsJPC9zdHlsZT4mI3hhOwk8cGF0aCBjbGFzcz0ic3QyIiBkPSJNNyA3aDZ2Nkg3eiIvPiYjeGE7CTxwYXRoIGNsYXNzPSJzdDEiIGQ9Ik05IDBoMnY0SDl6TTUgMGgydjRINXptOCAwaDJ2NGgtMnoiLz4mI3hhOwk8cGF0aCBjbGFzcz0ic3QwIiBkPSJNOSAxNmgydjRIOXptLTQgMGgydjRINXptOCAwaDJ2NGgtMnptMy01VjloNHYyem0wIDR2LTJoNHYyem0wLThWNWg0djJ6Ii8+JiN4YTsJPHBhdGggY2xhc3M9InN0MSIgZD0iTTAgMTFWOWg0djJ6bTAgNHYtMmg0djJ6bTAtOFY1aDR2MnoiLz4mI3hhOwk8cGF0aCBjbGFzcz0ic3QyIiBkPSJNMyAzdjE0aDE0VjN6bTEyIDEySDVWNWgxMHoiLz4mI3hhOwk8cGF0aCBjbGFzcz0ic3QxIiBkPSJNMTAgMTBsLTMgM2g2eiIvPiYjeGE7CTxwYXRoIGNsYXNzPSJzdDAiIGQ9Ik0xMyA3bC0zIDMgMyAzeiIvPiYjeGE7PC9zdmc+;" vertex="1" parent="S-2BuqM_WuFqO3oSfhrL-3">
          <mxGeometry width="30" height="30" relative="1" as="geometry">
            <mxPoint x="15" y="15" as="offset" />
          </mxGeometry>
        </mxCell>
        <mxCell id="S-2BuqM_WuFqO3oSfhrL-21" value="" style="shape=image;aspect=fixed;image=data:image/png,iVBORw0KGgoAAAANSUhEUgAAANsAAADxCAYAAABCtMIQAAAABGdBTUEAALGPC/xhBQAAACBjSFJNAAB6JgAAgIQAAPoAAACA6AAAdTAAAOpgAAA6mAAAF3CculE8AAAABmJLR0QA/wD/AP+gvaeTAAAAB3RJTUUH6AcSBg8uITAd+QAAK2hJREFUeNrtnXmcXFWZ93/Pubdubd2dpCGRDgQUQbEbBMENRGUJYCAsyiTogIzM8MoyoIAC6vsqFZXNRBZx1HGdUeSDiYIbBkcgDUmIIGFk6QgCAoakAx2bdHftde953j+6buVWdVV1bbfqVtV5Pp/uqjpVdbc63/s853fOeQ5BWUPs+Gvve4MheKFFch8A+4CxgMDzmHkuMc1j8DwQ5oIRZmYBYM70N9nPjFBuQ8yTAKzsCzAjCmCSwZPEPMkQkwT5OoMnWWI7g14TAlslxGuZuNy28WunT6lfw5tG6hJUbktvun9vK2W+FSTeyswHgeitAB8IYG8w/Ay2GZkGZTdADpY4b5t5r7PPc/9zm9v9PPcu736++20GgBhLfoGInwPR82B+nkDPpTXtuY2R07erX1HB5jk7ceXvF+jsez+TfBcYh4NxOIA9st4mr+JPV/Zmg7b7c1xwLKX3j50AbwbTJqnxvQPPyMfWrFluqV9bwdZUWxZZbcRC84+D4KWQfCyAtwGgwspeO2iO78wArwAa5/4c250BWv2g72TgZ0zW7Ruv/egfVS1QsLlnzLT0pnXHQeJfJbAUQF9eBa0GtELvxHl+Kq/ig53fqgQ0F0HffcyPg3mVHliwZjhyrKnQULA1xovd9HAwIVOfZOASMB9QezuJ85xTUU9UE2hVgl4FaLPvn58hos+vv/6sXyo8FGw1WyTC4k896y4E6P8BGGiQINEA0AoAqRp0VzzqfZolPvnQquUvKkwUbFXZqTc9MCQl/QDAe5onSOS3y/Jf1gN60zxqDIxPb/zax36gUFGwVQjag8ullD8EEG5eO8l1ib+ZHvVHRih18XDkvKRCRsFW0k5ZNXwpgW/l3Ll6RpBoK4/KjGGZlKc/cts5kwobBdtM0G568F9Iyh/NDlorBYn28ahEvDlFvuM337h8QqGjYMvZyTc9eIiQ8hEGgt4WJNwDvSEedeb+N8VgnfDkqnNjCp/qTHTiSS1bvVoT4Nt3g5bvbPIqZE2ChFdAKzysmXDNfHfm+QLFvlZy/0eGiP5ToaNgAwAkti74V5b89sYJEo1S/goqdsmKXwL0IipkfaDXGLoynf3eK35ykcKny8PI6b604WcBHFBH+CQBPAOJrUycAXhvMA0BbLSvxF8+dK4EtLynzHEp+OBHV52r+uEqNL3TTujxngePz4FWffj0DwJuMAl3/OHqE/NGyC++4Q9zhJRnAPxFML+5tCDRKNAa41ErDZ3Le9QioTMhBNC3ACxRGHWpZztl5QPfAtFF1baTiPFbf0D/+C8vP3ZX2fZgZLUxafRez4wrmiRIwMud5ixw/KOrzn1AodSNbTaiJdULEnR7z5tfP2M20ABgTWR5+vdfWPIZSXxlkwSJCiX+1nhUknSNwqgLPdvJX1u3Fwkeza80s1a2x5JJ/f3DkWOrHh1xwlfX/hjgj7eNxF8ITYM8qmD59k03n/eUwqmLPBsRHzHj1jzLXZ0kX1YLaACgC/4MM0+VFiTqA62kCFmrR2V3PKoF7TyFUtfBRtVNl2GsX/uFEzfWur+1Xzh5DMD3myJIoAUSf1GPiiLg8YcVSl0GG0verxpBgsG/qhtwpl/NdB4t7sur1aOiZo/6xiMv/8kBCqdugo2mc4RULEgI+Xi9+4z7M483fRR/oR9slEetY3SMJa2jFE7dFEaCQ9WETzq0HfXuc+PVp08BiJZXHrloGIZSoM3SLvNaXx4DYMGDCqcugg2O/IuVhE+maQXr3WUkEhEM+MuP4veKxI+qPCqq8qhQYWQ3wSZBoarCJw2L6t3nQ/oRAwD7mitIlAatvEflqjxqVaBLzFU4dVkYWU34RJKOr3ufFi1ugSBREjT3POqsoPcpnLpJIAFr1QgSDJx5TGRdoE7Cz26FINEaib8s6LrCqZvabNULEgsNI31JrXs57iu/Pg7MJ7RCkJjpCeudrlOhRy0301xZN8JWTfjEX/nQ9WvfVe32j7/urj1I0vfrFiRQqyDhpQmwgKKtK2GrOnwKSIm7T7j2nsMq3cNJ1947gIxvLYA31S1IeHBwce0eVVlXwVajILE3INaf+NW1nzriPx/zldv+4hW/PtM0M48CeFeLBQlPelRlpa1DG7U1hU89DNzaP/baFSd8+Z6fMfMDFumvgNjUYA4w01EgXsYSh3lEkJj9RtNkj6qsm2CTDQmf9mPCVSC6SoOZ3Q45tu8hQaJFfXmzelRlXSSQdJUg0dgcl/V5VGVdBJvsMkGisR61IaAr6yLP1srwqeM9KivQFGy1gOZC/pAO8ajFL+3sHlVZF8EmXQuf2kWQaIxHrTsjl7LuEki8I0iUB70hHtVLGbmUdVebzVuCRBsMLm6UR1XWXW22rhIkvORRpYKpyzxbdwkSXPrLLfCoiraugq1rBQkvZeRS1m1tti4SJGrKyMUNz8ilbHbrqLGRWloeJ/xSq/Tzu9eqdWZhp1IfqsEmqrxPaKNg+F3xqNwoj1ocdFIsdRdsayMnt/Xi6u/73J3sfY9aKiOXsu4LIzuj0emhjFxVelRlCrZ2Iq5dM3IpU7C1p7rTZtN1pGJOwdZ2uHXCohvKWieQLFu9Wpv8254HaTofDolBAi0CYT/JMgjmOQCJUj82inScymI/djmZW1Y7uNj5VVnMBeTdygs7l0u3kySKL8GWayf5q110A2XPHc1fdKPwEm6/8nAIuaZBVSkNQgzAa2A8D+K/gMV6vGHVCJH3aXcNtpNuurffZ/nOZNCH4i9jsaahz6l8Mds/NqHyERLU9PCJSoVPVIsgQQ0XJLzVl1fENCsApv3dibSzdefVz+zgHXwnmL9PAzePdA1sS1bef5wGcTFLLGWwv6k/trfWLHNdkPBWRq6WBt97AbgMoMt49LJfQ/AX6Q23PtmxsJ26aniJBCIAv5sbcldt/zXLPJgivIxHrW8CbMtFpd3HcxokLeXtn/4mYvIqOvC2VMfAdvLX179FkHWLlLxktrtqt61ZNptHnT10djMjFxoGektByzup3KMA8CmE6f38yqWn0T63vdL2auTSrz94roD1OJygtSR8qge0CsInlwSJjsjI1TJvxrmF0Wf87T7Gd0DgUd5xySFt69lOXPn7sCH8PwH4w+0wCbJla5Z1ukf1RNjIs5UPwML9PHrpMTRw25a28mxLbly3jyH86wF8WAkSXZyRq2XerARo5crB8yHlWt5x4YK2gW3Jjev20XUaBvAOJUh0cUaulnqzYmFjYVnR9ty+MMVq5ojuedhOu3HDQk2ndQy8WQkSHZAinGsVo1okglTlzUq25z6Iba9e5WnYjomsC0jdvBvZRcpdFyS8HD61fYrwIiNfPCnxVyyClPNmRcr5Gv77hQd7FrZwL/0QwLubJkioFOElPWorQ2dviSBFQknm4p/NB9CA4Fs9CdupX1/3CQI+pgSJLs/I1WxvVr0Ikr+Nkl4RAPNx/Mr/Weop2E69dcO+AN3iibuqShFe3KOikR61lYJIMW9WtQhSyps5yu3t0ZeZm5vNobxns8ybGZjTHuFTd6UIR02ge1Xib6AIUnH/m3wHXjl/iSdgW7py3THM+Eh3CBJwX5Boy4xcbSuClPGKzs/Ki7zh2QTd2D2CBHtSkGitR21rEaRMuTOUxBLedt6ilsJ2yteHjwXwbiVItFCQaLFH7QARpJJwUoOJc1oKGwGfVYLEzHZR/YIEKhMkOlbib7IIUtQrzvjO+c0SSmbAtvSm+/cG80lKkCjy9XZNEc5ViFEdJYJUBPf++Pu/HNUaz2Zp5zKgNU2Q8Fj45F2PWsd4U7RaeWyhCFIJ3EwntwQ2Jv5YUwUJVoJE4z1qK5RHKr6MjcVaS0WQklA6vkOy+bAtuXHdPgAOUYJEu3tUbjJoAMBTxRmk3haLICX2mQf3obz13L2bCpsQOEkJEu04Abb1Ej8BJWDjvuaLIBVsO7+cYPGHmhtGEhYrQaK7JsA2zK8xtpZ4Y17zRZBKwskZx3Gi27DpBZ7jfdRNgoTLa5Z5fQJsg2/bfy3h2d6Sn1W3Ko9TprwR28h7PLppnm3pTffvTYxFXSVIuLxmWTelCGdQ8TyNUr7NEyLI7AAu5BfO3bc5YaQURza1P6eLBIlKQ+emedTGWyrkj/2xhEByiEdEkOLbdh6PMI9qCmws5Xub1p/TZYIEeynHpQtGwMZNN1+RmHFltl9yEJgXekQEmdlWnAG3PLIpbTZJ4ijKW/hBCRJtmeOyCcrjDKiI7yzxxmLQbCDUK4KUK696G+57tmWR1QZBvqO5ggS6TpBodUoJt0JIi/nnJcSRk+sbCVJH+jqucJRJPoCH8vZTQ67CFgvNHwQjMBMHlSK8fT0qmmX//dS3L359Ru146bIBMJ9QnwiCRosgMwWW/O37kAgc7ipsRNbBRSQ5JUi0tUdtCm2WIGtl0Xd8mXOmmykeE0Fm26c9gsot2CTo4M4VJFSKcBftO49/69+fn6kYR3QwLvSmCDLbPDpyLc2dDgAk+WAmdKggoVKEu2Q7M2n9S0Xf2fbaOSDs71ERpHw585CrsDHhYJUivPGCRCfnD2HmT4784PzxGeWPfdIHwheq9kSNGgnCpX63CgEkdi+MXPKN3/WBsW/HCxJNXrOsw1cB/Y8nvnPR3UXfGdA/DeYDPSyCzKZk9vNLHxlwBTaZ9B8AgLyyZllHCBItTinhphHwQGZn/xVFvd22ixeB+RrPiyCzwZ2Rrng3IST2VmuWqRThFdoj8ZTvjJE1y9NFRBEB8HcB7vG+CDJbuTjAlTYbgfdlJUioFOGz27pEynf6sz/8t+Lz1ra9ejVgzwlroAjSCoFFyH1cgU2S3BtMLRIkGhs+qRTh7rXRMjv7r3i2iEcDAH7l4mMB+eW2EUFmD2HdgU2QWCSdDVG1ZlnjPWrbpgjnMWZc8sR3Llpd8hN/v/BgQP4CYL2+Cl8HgI3ftkueTfI+SpCob82yDpT4TQA/zKR9ny8m7+cOccf5b4LJ9wKYV3XIV5U3a2TYyMWjivz9upIlWQd4jhIkWuxRqxCjXAYtwcAdukXXb/7uBS+U9XmjFwzCxO8B7F1nxa6zvJEhae5xH2YQUWMbxDpAod0VVgkSXZgiPArgQYB+qVlYs/m7F0zMGlxuveiDsOTdAOa1rQhSHsAA/ra4D7hvorGwEYfASpAo4Ub/AeaXITDFjCgxx537z0+USFmdSaLgDZBjkxIE2J/LPvCMAeCUzYctYSfGlrIBvzYhzYwpEI8JiedYaM9oJv9583cvyFTUgmMQXrngUyC5Esy+BlXs1oggs207EwoDaDBsEiG1ZhkAIAlgI4D7QeJhX1Lfsv625WNQlhVCLlmIbZnvgHBqh4gg5ct9Mtx4gQQcotnCp85ds4wZGBaEH6VC0V9sjlwQV1gV/mYRgW2j54MzKwHu6yARpPw2TDR8EqlOgL9446Sj1ywzCbiDyLpu49c+/qxCqgRk20dPwbbRLwM4rPLK6oYI0kSBxT4nicZ7NgZSxAh2iyDBoLuI6aqNKz/6gkKqmMp46XxY5tnYtuMCAAc1tp3kKRGkfLnmAmzESAAc7IIU4S8zy0s2rTzntwqpQnXxggMhtBPA/CFYmZMANppasVslgpQtt4yGwwZwsgtShP9aCP7EhhvOeb3KUErHzsn9IcUeAPdA8lxv4mLNXm4BABMEzQXzHAD7AXwQwENg7AWWDarwbSSClGsrSpFwI4xMNFGQaAhoxWTIEh7VIsaVG1d+7JZ8Ab4EXNsjIWjRkwBeDMYH8OrUWwAydk8spBZDVaryUYnK5Ci3T98JVSNSzLWzCFKunNF42AAkO3TNsjSzPOfhlWevAT5Wvgq/esWhYPw7MHUWGH0eDfZaW/k6UQQpVy644cq0TozX2UVBojrlsWEeNQ7Bp2664ewHyosBlw+BxFfBOB0AwbPGbdROaiMRpNz1lZYLYSRh2+59dURC0wyxXLaxDGi89fIgfPRFgD4LwOdpyNyufF0tgpQp1w0XPBt4m2y8IFFCeXQ9IxcD+LeNK8/+Xcnq+9qVB0LKnwN4u8c1wjrbSW54lg4TQcpd3wl9vOGwSYlthT9Qu65ZRqBbN37toz8p3Ta78kRIuQbwarusWZVPiSCzbHsnvfM3jfdsTPIVcszUbts1yxh/2hUWV5cRQc4Ey58iN2JGiSBdL4KULv+7G7+uTkTbit9M2ypFeErodM5IpMS0/dErTgbTnShYaVWJIN0iglS97ZddgU1y5nkBX5uvWSZv2HD92UWXmeXtnzkChNXeBa3TRJAGh5OtaIeyO55N3P9/T38VzDtrFCRaLfGDgReNUPqGotV4/Oo5EFgNNH6cW1NEkIpSwLmUO7FeuMsee6lznW3bTVqgA+yKZ8surIEtbSjxT58A83XDkfOSRc8unfkWgP29Cdkslc+t3Im1VL6GwQ3Mvh7bbBDXAneVuSkZT7oGG4FH2nPNMvn3XWH9x8UFkc8uBuif28ObuVH50LjKVxXcXLnX4hLb5jpvHCXLyx27w0ukebNrsDHj6XZMEc4kbismijBHdIC/6VkRpGGVj92pfFwP3FVV7Cqhb8oqpc/TO4Z3uSKQTBMnRxii3VKEm3rK/GnRs3pt6iww3qpEECWClBRBSl/HP7lVC3QAMHziyWQGDDC1S4pwZqxdf8vHR0vU7avaRgRpaWexG3C3fWf8ZrdqggCAez6/9HUGP9tOa5YR02+KVu3Ry98NTwzFancRhD0ogjShHSqwyVXYplU9eyftsWaZicx9xc9InNt+Igh7sPJV0k5qIxGksvbmOA5a8KjrsIHoj42X+F1bs+ylR1ed+2KJen5K+4kgUCKI2yJIRTcOeS/RGsvVNhsAsLT+yEQtTBFe1aIbTxWX+698M1i+UYkgSgSp6VwlrXWzhuQ82/vxv0+DMVleefTGohsk6S/FT8c60pMiiBoJgspHgrSsM14ig983BbZIJCIBPNYWKcJJPl+8zouDlAiiRJCari/jUTp8/VhTYMse0LqSHtlLa5YxSmTJ4gNa682UCNIGIkip63uX2zVG5At5uKc91iyjqRLn069EkDYTQbjZIkjR6ygB7c6mwnbfl077M8gxc9uja5ZZQpaaRdvbtLDRlXZSsytfjSPmUUk7tEK4m9oOLRUV4CE65KGtTYUNICbmtbODVl55bIjEX2b/JEssVEZuJu9p9Yh5JYI0/vrm7KfNiIdEYYEkvqfmRdSbnJFLiSBKBKnu+nIx0NIgeVczapI+Mw7T/2cS5iTZSXHqlvhR96IbKO0QW9x3VkW/V9flBPFqWoYZ0dAvaWjTeDNq0wzP9pvIqXEQ7qxX4i9GSK2LbhTNX6JEkNrbSU0RQVrVDq0CtOmW0380q0aJoqVSfr9JKcJR06IbSgSpoZ3U9SJIMRvB2x5e31LYHvzKmX9i4oc8v662EkGUCFKLN9sdQt5G1LxwSZQ8DomVDZP4UZvEX96juimCuNlIVyJIC0SQIhWcJgDfT9FEKwnb8Fc/8lswP9wQid+FjFzNEUHUSJD2TMtQgUncQkPDUU/Alj2Hz3tB4ncvclQiSHuKIFxb2LjbdiKQuanZ2nZZ2B669syHGLjDu4tuKBGkMbkTO2FGQjU/P32VDnxk0lOwAQBb1mUA7SynPNYt8dfUl9eJIgijqSJIx+SmrMpeRqD3O2iBzQrb+uuXjzHjEwCzd5b77VQRpIJ2khJBavNmu/vVPk0Hrk15EjYAWH/dmfcw06raQSu4tvUuumEqEUSJIDXZHTT08K/QIhOVfnC98fTnAPy8tkU3KsjIher68pQIokSQKuvBc0gmL0YLrWLYEIlIzYh+HMB9zV10Y+ZGzYq9mRJBulYEybdJSD6T3rl5oj1gAzAcOS/ZE+1ZCuCupi+6kReAZjpbBGElgjTGmwEgJCDFafT2TU+hxSaq/cLa205Obbh+2T8B+BwAWf3g4hoX3eBKRkd2iAiCauGuRATxYjvUJRFkt/0DoBPp7esfhAdM1Hi74A03nHUjgJPAeKG88uheRq7ivHlBBHEzd2K7tUObLoLY23ocQjuShjZsgEdM1PPlDTecdZ9Mi0PA/CUArzdz0Y2iJr1S+aBEkJaIIACAKEBfRCr1Xhp86Dl4yOpe+nbTzcsTAL7ynktvv1WEtE8S41wwDnFz0Y2KhJFioWitjfSiMNVbscuV1yCCdMwCHTXbqwD9Nyz5dTp042vwoDVsnelHbjtnEsAqAKuO+uydBwPmYhAdA+AQgPdjQJtdeZz5ovwsgjJSf0srXwUzoFtRsVuyOkw1267KdgF4FoSHwPJ+jPnvp2OHTXjYXFnU/eFVH30awNMAbgGAochqozdpLWQz3QfWQiSsHlgAOb4zI8E6Uf472ZdkAqYmni4RR7pb+dyu2JJOAax0KVmtyFXKXpeCa2UV/VD20Sy+bTJL79a5f7OWbZf4lWnGk3JNBAuSJuHDFBL0utsJVd0wQgcZb//UYwCOaE5OEBfCSQoE6U3/lYSyjjS9807JCwlp6tm2MgVbR4LmNRFEmYKtnWBrZxFEmYKtvRybx0WQcgCSqpAKtnYNJ70ogpTziDL6U37hn6yZnk7u/rwsUT7DOcoSXjNbLkuUM1e4HQDSuX9+kQ5ef7VCqmtgk20igpQs/8jMCt8m7VDC/wJQsHWXZ6u1/dQsEaRTR4JIRVN3tdnUSJDWjgRR1kWerQ1EkHrbip5foENZd4WRXhZBPL06jOqMV7C5DlqTK3a7iiAlw3Vl3enZmJUI4lY4qSBTsJVtt7VUBHEznGyVCKJAU7ABKN3PpkQQJYIo2JrcZlMiiBJBFGwNbrMpEUSJIAo2l6NIlRNklnByC8CbwLwNgA/AIoCPBbC38mYKtgaLI10rgtwF8DU0OPx0kUCAMPLBY0B8PZjfo0BTsFUHnBJB7PIUmM+noeHbS12t6TWlH1zHjCMxcvRVAF+HOlMcKituohNZU4lRGQCbgDi1HGiF0NHBG24E8ZUKCwVbBaBJND8xqkcX6CD5JRq8/w/VXkIaevgmAGsUGgq26tptTVkdBvDgAh0vQw/Vvma0Zl0FIKXwULCVA41nFUFqWh2miQt0NGQhQ/m9elbXpLf98SUA91R56ZWq0lWwkYy6szpMJeFktXCjAq9VYw5/qf22/vsW3VNlTZpSOJW3zlIjLTEFknW0n9AZI0HmJP/agIv5TFX3YqZJhVM3wUbypYZX7LzyeiBu2kiQKC3alKj7Wmq+MUirimuPbQqnbgojGVu6SAQptc8wP7fEX/e1NM09q/zGiMKpq9ps9Ej3iCAl26GExK431e/ZaP8qL/6fFU7dBNt+P/4zgO1dIYKU64zXtFMaECWcXMVNbgKJxCMKpy6CjQgMxi9nrdyeGgmCxq9Synwer16m1czZE0ctAHBa5V+Qv6N3bs4onLrJswGANL89e/up2SNBuPaRILUtkTuEwe3n1S6biQiAnipuc99TKFWiIXWg8d/OuhegkzomJ0htkztjID6ahh6uqi3FT71vOQh3Vlw3iJ7C4IZDpwc0K+suzzZ9WlcBbHWwCFLJvLMwmO7jLUd9oArQzoLAf1V1Eyb+nAKtiz3btHdb/g0Al1bfWeyG13K7w7yspQDcDL95PR34SNGOZx45el+ArwXj7CrrxL108MYlCqNuh237qSEkApsBHKRyggAA4gDuBfFGQOyAhAbwIhCOB/ABVD/A4R8w5aF02CbVmd3tsAEAv3TW22BZDwM8N7+y1uFZPLNAR0trjQVJZ9AhG36rEOr6Nlu2TrzxZ38BWcvBSLk/EgRo8EgQR3nhNlp+G7tcgaZgmwnc/nf/AZBnAEh2oAjSCq92DQ09fJtCR4WRpe/Fz3/kWLD8OYD+DhRBmhM6ApfR0MZvKmwUbLMD98KZB0KadwMYUolRqxRDBH2UBjfcp5BRYWRld5Y3/+I5BIx3AfztHAneHgnigTsU7oNlHqZAU56t9jr019M+AOBWQB7WWG82iwjSPt5sB4AvYmjjD1SntYKtfuA4IvDXx84BYSUgF7ifw78NQCMkwPwN+K3rSnWCK1Ow1Q7dk6fMQwCXg+WFAOZ3pQhCSIDpdrD4Ch3y0FZVKxRs7kL33BI/JM4C+CowD3WJCLIdTN+DoX+T3jq8U9UCBVuTw0sQ/nLiYmj0z2A+A+C5HTYSJArCPQDuwMjCe2j5Gkv96go2b3g70zoRkGeB+BQw5ralCEI0AZa/A9PPMSXX0lENSAqkTMHmnsdbpuGZnYeBaTHAiwEcDXDAoyJIDIxNILoPhI1IJB5Rs6kVbO0L39Yjg5gyjgbwXjAOB/gITK951mwRRAL4G4AnQNgMi4fxD+NPdOywqX4lBVvnAvjEUQugi8MBHAbG/iB+I5jfCNB+AIw6Nz8FYCsY20H8VxA9CcITYN/TNDQcVVdfwaZsOpIUePI9C0G+N0DHPFjoBdADQi+A3t2/CO8CiMFIZvu8dkLKUXDvVjr0f2LqSipTpkyZMmXKlClTpkyZMmXKlClTpkyZMmXKlClTpkyZMmXKlClTpkyZMmXKlClTpkyZMmXKlClTpqxNTc1nq/P6MTNWrFhBADAyMkIAsGzZMgDAli1bil7f7du30xFHHFHxTjZv3oyFCxeWnO49ODjIa9asAQAMDQ0xAFxzzTVMlNu9SrKqYGsvkIaGhnLXa2BggABgdHSUshUeO3bsIAAYHx+fcV0nJiZo0aJFRXc0OTk54/N9fX1FAdm6dSvmzJkz473+/v5c2fj4OGePkbPHmHtvZGSEbSgdQCoYFWzNhaoYUDZM/f395ISor6+PnKCEw2ECgFgsRgAwf/783A6i0SgBwJ577gnnZ6qxcDjMALBz5+7Ujj09PQwAY2NjeZ+JxWLsBHZycpKdUO611168ZcsWDAwMcCGICkIFW0PPORKJ5IHl9FJOqJxAOWGaP38+otEo7bnnnjlw4vE4AYDf789d02QySXPmzIHztQPWvNelLBAI8OTk5IyyrLfMPQeAVCrFABAKhdiGb+fOnTko4/F4DsZCEPv7+9npEW0IbQAjkQgr+BRsNcFlg2WHfYVgOaEKBoM5oGyYbJCSySQ5went7c09T6VSuceenh44oCCHxyp54LFYfsoRv9/PWU+Ze24/AkAmk2EnoIFAgJ1AplIptkFMJBLc09PDY2NjCIfD3NfXx6Ojo+jr6+NCABV8CraaAXN6LhuuUChE2YpKsViMnGD5/X5KJpNkGAYBgM/ny0Fkg5RKpSgcDiOdThMA6LpOAJBOpykUCsF+7jxIu7ycxePxvNeGYeQquGmabJfF43EYhsGxWCwHYCaTYefz7DFwIBBg2wvaADq9YDwe576+Po7FYmy3ERV4CraikA0ODtKWLVuoEsBszxWPx8n2VsXgSqVSZD/aUIVCIaTTadJ1nWyQ7DJN0yhbySkYDM4ArVhZKbMsiwuBSyQS8Pl87HzfCZ/93DRNdkJoAzgbfLbnc4JXyuMNDg7yli1b7Laegq6EaR0Embj44ovF2NiY0HVdRKNRYRiGSCQSwufziVQqJcLhsIhGo2L+/PnU29srUqmUyGQyQgghwuGw0DRNGIYhenp6SAghTNMUuq4LTdMEMwtN00QwGBREJKSUAoBGREIIIQKBgACgSSmFrusaEdmPms/nEwA0IYQIhUKCiDRm1kTWpJRa9rfI/em6br8tdF3XgsGgMAxDZLcvmFnoui4ymYz9mrLHR/bzrPhDUkoRCoWImQkAZb0uxeNxYRgGZT01WZZF4XCYMpkMRaNRIaXMhdCvv/66sN+zbzqGYVAikSBd1ykajdLY2BgNDQ3R8PCwIqsTYYtEImL+/PliwYIFYmxsjAYGBiiVSolEIiESiQT19fVROBymaDQq5s6dS3vssQelUikxMTGRg8w0zRwwpmkKKaVIJpMiG1pqmqYJKaVgZnLCJaUU9mshhA2kFgwGBQDNsizN7/cLTdM0ZtZsUAFogUBAEJGmaZrm8/lE4Z+WNb/fL5hZMHPuOHRdzz1qmkZ+v5+klMLv9xMzEzOT3+8n0zRFMBgkIQRJKXNluq7bQJJlWbnHYDBIlmWRZVk5YWfXrl0kpaSBgQEQEeLxOOm6TplMhhKJBADkoHviiSeot7eX5s+fT8uXL1fQdRJskUhEFMj1wjAMMT4+ThMTExQIBISu62J8fFwEg0HSNC0HmWmaQtOmncvcuXMpmUyKeDxug2S34TTTNHOV2OfzCcMwhGmaAoCwX0spc7BlHzW/3y+EEELTNM00Tfu1RkTC5/PlQNR13fZ6eX+GYQhd14VpmpphGEIIQUQkmFlYliUMwyDDMEjTNEqn0wIACSHI9maappEQgizLIiklEZHIZDKkaRp8Ph/S6TT5/f4caKWgy7ZjMTk5aXtEhMNhEBEymQz19fVh165d6O/vh67rGBgYQDAYxMjICJYvXw4F3G7T27296RRA5s2blxu1sWjRIliWlVMVLcuaIXoYhkG9vb2YmJgQPp+PpJRkP0opyW6POSosWZaV8x52mf1c13Xy+/2QUop0Ok1CCNJ1HYZhkBCCTNOkLDTk8/mQdZOkaZoteJCu67k2j5SSw+Ewp9NpCCFYSsmhUIillCyl5HQ6DSkl+3w+llKyZVnsfC2lZGZmwzDYbtdlbxas6zqn02kYhuFUSeH3+3OPji4LBAIBxONxhEIhRKNRJBIJhMNhZLsleHx8nPr7+2ELJUNDQzQyMgKeDgcUaWjjBexttRGYHv40OjpK9ggOWwQBpjuX7U5lh4Se1xfmlOFLKYS24GE/F0JQIBCADZAQIgeas0xKKew/TdOEpmk5bwZAY2YNgC6E8BmGoQshfNNipq7puq4xs2a3G+0w0g4hA4EABQKB3L7s4zJNk0zTnPHaVkQzmUyemGM/L9UN4ewrtM3ZaW93mwDTfZV2vyUAewSOoq2dYbvmmmtyHqBw3ODWrbWvUlsotReT3J3eR9d1Lnxd7L10Og1mznkcXdd5uinHLISQzj/7c8zMmUwG6XR6xn5sr5ZOp5FOp4vu21YrC9+zy+3ugib8XEqhbGfYiAhDQ0M8ODiYG/UwPj7O/f39PGfOnJxcHY/Huaenh8PhMIdCIZ6YmEAqleJAIMCBQCBPCrdl8kLp3LKs3HuWZbFlWSyEkJZl5UK2aVFRciKRyMGTTCY5mUwyAMswDCv7HZlIJGQmk7GY2ZRSmul0Ou/PsqxMOp027c8QkZVIJKRlWRKABcAyTVPa+7X/nK99Ph8nk0kIISQRSTuMtI/fCZl9vrFYLNdh7uwgt7sFst4/1xne19fHzk7wwu4ARx+csg5w72X71cr1qfn9fnL2pzn70ux+M13X855rmkZZkYHscNL+c5bbIV0mkyG/3w9nKGcYBuxHu53mbDc5PZfTK9ptLNvDpdNp2LCnUinY3tIus6FyQmaX2zcO0zTznjtvPIFAgNPpNKdSKZ6YmEB/f78Mh8OcTCZzo040TZPOvje/3y8dYy2l6nfrMOl/eHgYQ0NDGBwcxIsvvoiBgQGMjY2hv78fu3btQl9fH6LRqC1bw26fJJNJ20Oyz+eDz+eDZVnQdR3JZDL3yMzQNA2apuVCQSEEa5qGTCYDZoZpmkxEnE6nmZltMNjv98t0Os3JZDLnCTVNk9lKLjVNk0QkixkRSWaWyWRSMrMUQshMJiOJSCYSCSYi6fP5ZDKZZJ/PJ03TtL2rTKfT0oZK13WWUkrLsqRlWazrOjMzp9Pp3PNUKsU+n4+z4SvS6TRPTk4yEXEqleK+vj7bY3M8HudMJsPBYJAnJye5v7+fE4kEz507N+fRxsbGOBKJ8IoVKxRoHaJG5toDkUiEmZlWrFhBo6OjAgBnRZBcB27W65AQgsbHx2n+/Pm5oVmTk5M5TxeLxcgwDLIsC8FgkFKpFAkhaGpqisLhMGxPZ/ddSSnh6LeCruuUSCQo603gECtsRRR+vx+ZTIZKtQ8Lzefzsf1ZImLTNAGATdNEFqq8USO2Apm9GbCUkgOBAMfjcdhtRlu5DIVCPDU1hVgslhtJYo+r1DSNiYg1TWMhBI+NjdkDmO32oz0cjEdHR+3pOxyJRKRCqzNhy1XCbD3jFStW0Lx582h0dJQKoYvFYujr66OxsbFceEnTvctkmibS6TQRESWTSfL7/blBxsFgkKSUmJqaIp/Pl4MvG2Lmhm1lMhnYap/P54OtAtqPmUyGMpkMgsGgM2SkcqJMNBrNQecEzW5TOs4/9zoajbJhGDw1NQW/389TU1Nsdydk25yIxWJsWRZnMhmenJxEOp3mUCjEwWAwN1Rr7ty5HIvF2J62UwjZvHnzeHR0NDdUy57Eqqzz2myztueqGYxcONK/cNpM4ZjJLABkj+J3DlC2ZfRSA5HtDuJKzAbICaFTSSwcfJw9Vg4EAjw1NWXve8YYyGxIzYUzAOwpOGr0v4KtpvO0J4jaYsps8A0MDGBycrLkVBsnhM7pNlkYctfVOeXGBrHWk3BOp3GCZMNklzthsqfYlJpak4W1JFzA9Exve7AxACjAujyMnK1dVzDzuOjsbOfM7FQqRfbE0Oeff54WLVqE8fFxGhgYyL3X29ub81hTU1OwYZRS5oDcuXMnFesUtiEFincaT0xMwAlWFvJc2ejoaN7EURsmO1y0J4xmVVP2+/25+WqpVAoAOBaLob+/3x7Rn5s0Oj4+nmt/KbiUZ3PV+42MjNCyZcvg9IDZCk52rpHCPCOFaRJsz2i/XyxdQrVWmP7Ase28NAiFeUrs/CSF3grYnSxIpUNQsHkOxGx7JQ9GJ5A2lI6KnneNiyUDqtScSX0AwM4lkt0/O/afe+6ECcjLuqWAUrC1//V0gmmbPY7TNjvdnW2Fae/skTEAUKjw2eDYptLWKVOmTJnD/j9d8UMJDuviOgAAACV0RVh0ZGF0ZTpjcmVhdGUAMjAyNC0wNy0xOFQwNjoxNTo0NSswMDowML+GwLEAAAAldEVYdGRhdGU6bW9kaWZ5ADIwMjQtMDctMThUMDY6MTU6NDUrMDA6MDDO23gNAAAAAElFTkSuQmCC;clipPath=inset(0% 7.99% 15.98% 0%);" vertex="1" parent="S-2BuqM_WuFqO3oSfhrL-3">
          <mxGeometry x="176" y="10.714285714285714" width="19.9" height="20" as="geometry" />
        </mxCell>
        <mxCell id="S-2BuqM_WuFqO3oSfhrL-12" value="" style="strokeColor=#dddddd;shadow=1;strokeWidth=1;rounded=1;absoluteArcSize=1;arcSize=2;" vertex="1" parent="1">
          <mxGeometry x="310.8" y="423.33" width="175" height="61.17" as="geometry" />
        </mxCell>
        <mxCell id="S-2BuqM_WuFqO3oSfhrL-13" value="&lt;font style=&quot;font-size: 11px;&quot;&gt;Logging&lt;/font&gt;" style="editableCssRules=.*;html=1;fontColor=#999999;shape=image;verticalLabelPosition=middle;verticalAlign=middle;labelPosition=right;align=left;spacingLeft=20;part=1;points=[];imageAspect=0;image=data:image/svg+xml,PHN2ZyB4bWxucz0iaHR0cDovL3d3dy53My5vcmcvMjAwMC9zdmciIHhtbG5zOnY9Imh0dHBzOi8vdmVjdGEuaW8vbmFubyIgd2lkdGg9IjIwIiBoZWlnaHQ9IjE5IiB2aWV3Qm94PSIwIDAgMjAgMTkiPiYjeGE7CTxzdHlsZSB0eXBlPSJ0ZXh0L2NzcyI+JiN4YTsJLnN0MHtmaWxsOiM0Mjg1ZjQ7fSYjeGE7CS5zdDF7ZmlsbDojNjY5ZGY2O30mI3hhOwkuc3Qye2ZpbGw6I2FlY2JmYTt9JiN4YTsJPC9zdHlsZT4mI3hhOwk8ZyBjbGFzcz0ic3QwIj4mI3hhOwkJPHBhdGggZD0iTTQgOWg0djJINHptLTIgN2g2djJIMnoiLz4mI3hhOwkJPHBhdGggZD0iTTQgNEgydjEyaDJ6Ii8+JiN4YTsJPC9nPiYjeGE7CTxwYXRoIGNsYXNzPSJzdDEiIGQ9Ik0yMCAxSDd2NGgxM3ptMCA3SDd2NGgxM3ptMCA3SDd2NGgxM3oiLz4mI3hhOwk8cGF0aCBjbGFzcz0ic3QyIiBkPSJNNiAwSDB2Nmg2eiIvPiYjeGE7PC9zdmc+;" vertex="1" parent="S-2BuqM_WuFqO3oSfhrL-12">
          <mxGeometry width="30" height="28" relative="1" as="geometry">
            <mxPoint x="15" y="16" as="offset" />
          </mxGeometry>
        </mxCell>
        <mxCell id="S-2BuqM_WuFqO3oSfhrL-36" value="" style="group" vertex="1" connectable="0" parent="1">
          <mxGeometry x="303.8" y="30" width="190" height="80" as="geometry" />
        </mxCell>
        <mxCell id="S-2BuqM_WuFqO3oSfhrL-42" value="" style="group" vertex="1" connectable="0" parent="S-2BuqM_WuFqO3oSfhrL-36">
          <mxGeometry width="190" height="80" as="geometry" />
        </mxCell>
        <mxCell id="S-2BuqM_WuFqO3oSfhrL-29" value="" style="strokeColor=#dddddd;shadow=1;strokeWidth=1;rounded=1;absoluteArcSize=1;arcSize=2;align=right;fontColor=#CCCCCC;container=0;" vertex="1" parent="S-2BuqM_WuFqO3oSfhrL-42">
          <mxGeometry width="190" height="80" as="geometry" />
        </mxCell>
        <mxCell id="S-2BuqM_WuFqO3oSfhrL-20" value="" style="shape=image;aspect=fixed;image=data:image/png,iVBORw0KGgoAAAANSUhEUgAAAX8AAAF/CAMAAACWmjlVAAAAM1BMVEXwUDPwUDPwUDPwUDPwUDPwUDPwUDPwUDPwUDPwUDPwUDPwUDPwUDPwUDPwUDPwUDPwUDPNJiJ+AAAAEHRSTlMA8DAQ0KDAQGCA4CCQUHCw+BUOAQAACLtJREFUeAHs0YNhRQEAwMBv4+0/bW0zxWWE3Oi3tl8vNsN548VuPx19Y1rOx8PdjntXvqvVZnikzcqZ72iyGJ5otnTny1sPz7Tz52ubHodnm009+sr9s+GFZluXkv1XjSc+BfsBBPsBBPsBZPsBpPsBpPsBpPsBpPsBpPsBpPsBpPsBpPsBpPsBpPsBtPt7APt7APt7APt7APt7APt7APt7APt7APt7APt7APt7APt7APt7APt7APt7APt7APt7APt7APt7APt7AP8BAAAgAAAEAIAABAEAIAAABACAAAD4N38BpPtncwBNV28BpPsBpPsBpPsBpPsBpPsBpPsBpPsBpPsBpPsBpPsBpPsBpPsBpPsBpPsBpPsBpPsBpPsBpPsBpPsB1PsB9PsB9PsB9PsB9Ps/DnDC3n0gWYoDURR9QgaE+7n/1c6Eb28yWnGJRG8FXed28W2J1s7ee21lBvDx+wOkun1ps96fGcDB7wjws+WtAAHC8fsDSGsLEIDn9wfQWgIE4Pn9AdRngC/4gQDLHiAAz29W5+HdJL8/gGqgAH7+GQDlRwMUOADPzwbIOxqA56cDLAYG4Pn5ADcZgOfnAxQwAM/PB1gNDMDz8wEaGIDn5wOsBgSIyG92ybMGBAjJn7I824wLwPPzDwDZgAAB+e2Sbx8gQEB+y9xrMD4Az1/k3GJAgHD8dso7AwKE47cu7woQIBy/rfKuGReA5+f9TwMCROO3Rd51AwJE4zdx/nwAnt8y588H4PltBf39AXh+3v9jQIBo/LZxzz/5ADy/dXmXDAgQjd8+cu4wAwJE47ck5y7jAvD8/AuwakCAePx2y7fduAA8P/8BQDIuAM/PX4AWIEBEfquaAUB+s2MGIPmtagYA+c2WGYDkt6YZAOQ3u2cAkt9smQFIfkt5BgD5zcoMwPDPADz/DMDzm+1LgAA0/3wayvP7144IAXh+/84cIADP71+qOUAAnt+/VXED+Pl5/yVAAD8/79+2AAH8/Ly/RQjg5+f9IwTw8/P+EQL4+Xn/CAH8/Lx/hAB+ft4/QgA/P+8fIYCfn/ePEMDPz/tHCODn5/0jBPDz8/4RAvj5ef8IAfz8vH+EAH5+3j9CAD8/7x8hgJ+f948QwM/P+wcIkIsF8H9iAIAf8H9wAIAf8H9wAIAf8PcFKLVv6/+7+tmAAAP4AX9ngHau+mrruQMBcrGI/rbJsaUOCQDwo/7+ADrOEQEAftbfH0BHGxAA4If9/QG0pQEBAH7Y3x9gKQMCAPywvz9AbgMCAPyAvyMAcDtbgB/wf1gAgB/w9wcY7JOOEef08v6jAqSRf8vcLYz/qADrwBN1FovjPyzAOe5Y5RbIf1iAvI86UWezQP7jAmyjrkB7JP+BAfYx91VcLZK/IwD8C1Df55/k2phHgPQ+//qUp0BVuux9/stTbueZpP4+/yQ95wLU3uf/eczbcHZrf5//LT3lJUCVvc9/1XPeBHqjf37O/ZzTG/31HH97of8u8n5607+F8/dv+ifjNv3LgKSBr//F/vGaTuM2n/+cuozbfP6/KRu3+fr3kD6v8+9y7h5xY8vLqM33P+9Xfv6eHnM78/zG75+YXXJtGXRXxTI//2UuP4fjYT2Cf8qP+A7u6fhgP4S/3U/49GvPjtfVMfx3ObaP+yFyeZe/df7J/+04giKMf8r01b9KQADa3/8a7DOAHwjA+vu/g3sN4AcD8P5pAW+cVCU2AO9vJWN//1gdkcP5W8kcPx+A97eSOX4+AO9vJXP8fADe39JKPPQCAWh//wvhbsP4+QC8v5VVv9haRvLzAXh/s/bTAsfHBvPzAXh/s7bpB7uaAfxAANzfLNXt0BfLV00G8AMBUP8vt7fe73W9e2+7mQH8QADAH1qVuADTv0pcgOlfJS7A9K8SF2D6V4kLMP2rxAWY/lXiAkz/KnEBpn+VuADTv0pcgOlfJS7A9K8SF2D6V4kLMP2rxAWY/lXiAkz/KnEBpn+VuADTv0pcgOlfJS7A9K8SF2D6V4kLMP2rxAWY/lUKHWDv2eEP8IcMkLrk+MImwB8ywCfrV1t3nj9wgHTpN8snzR84QDkcd0wG+IMGaNn7L+T5+QDxv79dpcABmuNfCPBHDVAydlInz88HSAt3Wg/Pzwe4gKPKaX4+gP+8niMB/GEDpEN/uw7whw3QkfPyeH4+gP/Azg3gDxrglGcJ4I8Z4JBnHeAPGaDItQPgDxnglm8F4I8Y4JBvJ8AfMMAu51aAP2CAj7wD+AMG6PJuB/jjBbjkXQP44wVY5d0J8vMBeP8O8McLIMSf5+cD8P48Px9gAf15fj7A6vcH+fkAvH8D+OMF6PKugPx8AP7njcDPByhybgH4IwbI8u0G+CMG2OTbh+PnA/A/dA7CzwfI8mwD+fkA/AWoAPwxA+xybAX5+QD8L0AD+KMG2DP435/n5wN08rNfnp8PsIBvffL8fICSwasPz88HqOBfv1RpBujs/XpngO3p/DPA5OcfAw6AP1wA/wkcVxrHPwOky3H8D8AfNoC1Qz/fto/mnwGsHg59gD9sAGtb1rc7+m6T3xHAt09fv7C/zmI2+V0B/Ev/tUcXBw5AARBCiUzc+q927bTufyJQAm/x1OlfCgjQKyCA+8cDuF+AgADuHw/gfgECArh/PID7BQgI4P7xAO4XICCA+8cDuF+AgADuHw/gfgECArh/PID7BQjcKID7BQgIcKP7BQgIcKP7BQgIcKP7BQjFBAjFBAjFBAjFBAjFBAjFBAjFBAjFBAjFBAjFBAjFBAjFBAjFBAjFBAjFBAjFBAjFBAjFBAjFBAjFBAjFBAjFBAjfzLZz91ebza9ivwChmAChmAChmAChmAChmAChmAChmAChmAChmAChmAChmAChmAChmAChmAChmAChmAChmAChmAChmADhPxNgcfqwA/+brU/vt1ny39l0cXqn3YwB2fJNgWwZlE0zOT1rfpgxNAkOWTwizBe71ZYL7Q7H02m600+YOAAAAABJRU5ErkJggg==;" vertex="1" parent="S-2BuqM_WuFqO3oSfhrL-42">
          <mxGeometry x="10.000000000000014" y="17.5" width="45" height="45" as="geometry" />
        </mxCell>
        <mxCell id="S-2BuqM_WuFqO3oSfhrL-33" value="&lt;br&gt;&lt;div&gt;&lt;font style=&quot;text-align: left; text-wrap-mode: nowrap; font-size: 11px;&quot; color=&quot;#000000&quot;&gt;Filpill/chess_analysis&lt;/font&gt;&lt;div style=&quot;color: rgb(153, 153, 153); text-align: left; text-wrap-mode: nowrap;&quot;&gt;&lt;font style=&quot;font-size: 11px;&quot;&gt;&lt;span style=&quot;text-align: right; color: rgb(204, 204, 204);&quot;&gt;&lt;font style=&quot;color: rgb(128, 128, 128);&quot;&gt;Data Pipeline Repo&amp;nbsp; &amp;nbsp;&lt;/font&gt;&lt;/span&gt;&lt;span style=&quot;color: rgb(204, 204, 204); text-align: right;&quot;&gt;&amp;nbsp;&lt;/span&gt;&lt;/font&gt;&lt;/div&gt;&lt;/div&gt;" style="text;html=1;align=center;verticalAlign=middle;whiteSpace=wrap;rounded=0;" vertex="1" parent="S-2BuqM_WuFqO3oSfhrL-42">
          <mxGeometry x="91.22999999999999" y="17.5" width="60" height="30" as="geometry" />
        </mxCell>
        <mxCell id="S-2BuqM_WuFqO3oSfhrL-47" style="edgeStyle=orthogonalEdgeStyle;rounded=0;orthogonalLoop=1;jettySize=auto;html=1;exitX=0.5;exitY=1;exitDx=0;exitDy=0;entryX=0.5;entryY=0;entryDx=0;entryDy=0;" edge="1" parent="1" source="S-2BuqM_WuFqO3oSfhrL-39" target="S-2BuqM_WuFqO3oSfhrL-3">
          <mxGeometry relative="1" as="geometry" />
        </mxCell>
        <mxCell id="S-2BuqM_WuFqO3oSfhrL-50" value="&lt;font style=&quot;font-size: 10px;&quot;&gt;Instantiate VM Resource&lt;/font&gt;" style="edgeLabel;html=1;align=center;verticalAlign=middle;resizable=0;points=[];" vertex="1" connectable="0" parent="S-2BuqM_WuFqO3oSfhrL-47">
          <mxGeometry x="0.0189" y="-1" relative="1" as="geometry">
            <mxPoint x="1" y="-6" as="offset" />
          </mxGeometry>
        </mxCell>
        <mxCell id="S-2BuqM_WuFqO3oSfhrL-39" value="" style="shape=image;aspect=fixed;image=data:image/png,iVBORw0KGgoAAAANSUhEUgAAAgAAAAIACAMAAADDpiTIAAACmlBMVEVMaXFcTuU+PrNcTuVcTOVcTOVaTOVaTOdcTOVUVONAQLVAQLVAQLNMaXFcTOViTutaTOdAQP9ISP9aTOVYTulaTOVcTuVcTuVcTOVaSulcUOlMTOdcTuVaTOVcTOVcTOVYTOdaTOVcTuWBAP9aTOVcTOVcTOVcRulaSOVaTOVaTOVaTudcTuVcTOVaTOVcTuU6Oq8+PrFaTuVAQLU+PrNaSudAQLdAQLNcTusAAP9AQLNcTuVAQLFISLdAQLFAQLNAQLNmMv86OrFaTOU+PrM4OLlAQLFaTuVaTuVcTuVAQLNAQLNURuM8PLNAQLE+PrFaTOVAQLNaSuc+PrM+PrM+PrFAQL9AQLM8PLFcRutcTuUyMrNaTuVaTOVcTuU+PrNAQLFaTuVaTOVcTOU+PrFcTOU+PrNcTOVcTuVAQLNUVP9AQLFaTuVcTuVaTOdAQLNcTOU+PrM+PrM+PrNcTOVaTuVcTOVcTOVURO9aTuVcTuVcTuU+PrFcTOdcTuc+PrFaTuVaTOVaTuU8PLVaTOVAQLNaTOVcTOVaTudcTOlcTOVcTOVcTOdaTOVaTuVcTudaTOVaTOVaTOVaTuVaTOVcTOVcTOVcTOVcTOVcSuU+PrFaTOVgQP9cTOVcTOVcTuVaTuVaTOVcTuVcTOdcTOVaTuVcTOVcTudcTuVcTOVaTuVaTudcTuVaTOVaTOdaTuVaTOdaTudcTOVAQLNcTuVaTuVaTOVaTuVaTOdaTOVaTudcTOVcTOdaTOdcTuVaTOVcTOVcTudaTOc2NrdaTuVaTOVaTOdaTOVaTOVaTOVaTOVaSO1aTudaTOVaTuVcTuVaTOVcTuVCQrdeUOVaTOVaTuc+PrNaTudcTuVcTuVcTuVAQLNaTOU+PrMP0C0UAAAA2nRSTlMAtVzDw8GxcLUILDBgANEMNgQG2y77ySb1IhYK/aP5QhTxkQLpdGAKHM3dPnwyh7cWfPlG8UYc0SQCdN0mBrfpwQQMvfUSkePx+635EjbJPtf7Hu2Z/QTXLhjnClhqTmBY5e2t4+UgmelqAt3z71yHnd2jauuJ55sOsfNyYmZah3JwhyJOo6WzXCBeZFDVnY2zekybn3aJi986TmIIn4XbYo+heveLr26lTK8q7euN/W5kWE5KXoXFWmB4j4N4gZOnl1QOdlZQmX6R7w6h4feTuWwiEmhSWIOnq44TBgcAAAAJcEhZcwAACxMAAAsTAQCanBgAAA77SURBVHja7d35j1X1Gcdx05bEafsMkLA4zBCZEBgWWRwURAFBRQKyuDCsasWIjlcGNQ2K41KJC+47WqtxFCfH1tqkixorbZOuqWnSfdHn/DONFqvDzDlzl7N/3s9vZu6cS773Fcybec6Z04yRntM4AgAwAGAAwACAAQADAAYADAAYADAAYADAAIABAAMABgAMABgAMABgAMAAgBED0BZcyYlJA/Dh1zo5M2UA7vs/4NCkAbhPm8KxSQPwrjtncXDKANwHjkzm6JQBuA8t5OykAbiThOIAfPh9klAagPv++zhAaQAkoTwAklAdAEkoD8B96EzOURqA+10koTYAklAdgPu+RzhMaQAkoTwAklAdAEkoD4AklAfgflcHpyoNwIcXk4TSAEhCeQAkoTwAklAdgPvA3SShNACSUB6A+1GSUBuA9y7u4YyVAbjvO8ghSwMgCeUBuD9FEmoD8G6SUBsASSgPgCSUB+C9L5KE0gDc9xysceLKANznk4TaAEhCeQDefT9JKA2AJJQH4P4MSagNgCRUB+C+5zGSUBqA+/xFHL80APfbSEJtACShOgCSUB4APyWUB+C9h0hCaQAkoTwAklAegPsLM/gwpAF49xySUBoASSgPgCSUB0ASqgNwv+M9klAaAEkoD4AklAfgg8fW8dEoA3BfQBJqA3A/nSTUBkASqgNwv+PnJKE0AJJQHoD7cZJQGwBJqA7AfehdPidpAO4XP8onJQ3AN75EEkoDIAkLAeBVz3PmT+fjEv4bwN2P8HEBgAEAAwAGAAwAGAAwAGBEAbzOz4lPzr8fkAQQdM9p48M327U1/IYmAPcF58p//Eu394W6ANyXaP98YMf554ShNACfemKi7ue/bGcYqgNw758r+nPiG9eEIQA+nWmTBD/+i75zWQgA2dXh2rcuDEMAfDFiSbhraxgC4JS7SXWS8LP0A0Bw6pdFkvBk+gFgFACNJPw8/QAQjPGK/rmzVdIPAMGYr2mvchJ+Of0AEKjdTToy/QAQBaCqSbhlaxgCoB4AlUzCpQ/1hQCoF0DlknD16PQDQCyAaiXhstvDEACNAahQEo6dfgAIxn19JZIwKv0AENTxHaVPwuj0A0A9AMqehDHpB4Cgvm8qcRLGph8Agnq/raRJOE76AaBuAOVMwvHSDwBBA99ZuiRctSYMAZAcgJIl4UWXXhECIFkA7sfnleTjX1lX+gGgUQB+xlmlSMItK8IQAGkAKEUS1p1+AAiauUTBk7CB9ANAUwCKnYSNpB8AgiavUtgkbCz9ABA0fZ1CJmGj6QeAoIUrFS4JG08/ALQCoGhJ2ET6ASBo7WIFSsLlzaQfAIJWL1eQJFx99iVhCIAcABQjCb93SxgCIB8ABUjCVWvDEAD5Acg5CVtJPwAECV01tyRsLf0AkBSAvJKwxfQDQJDchYeuLV/6ASBI8tITsk3CBNIPAIkCyDYJk0g/AAQJXz2zJEwm/QAQJH79TJJwfULpB4AghXdIPQlXfvuqMARAYQGknYTbVoQhAIoMINUkXL4pDAFQdACpJWHC6QeA1ACkk4RJpx8AghTfKfEkTD79ABCk+l6JJmEa6QeAIOV3SywJ00k/AKQNIKkkTCn9ABCk/4YJJGFq6QeAIIu3bDEJ96aXfgDIBIBPPbG5+cO97oYwBEC5Abhff02TSbhrbRgCoPwAmkzC9dv7QgBUA0ATSZh++gEgSwCNJmEG6ZcLAGtXBdBQEmaSfvkAqD3erwqg7iTMKP3yAWA28emNqgDqS8Ks0i8vAGbnXawKoI4kzC798gNg9tyQKoBxkjDL9MsTgK07NqgKICYJd2SafrkCMJvxgiyAqCTctjMMdQCYLZqvCmDMJHxgUxhqAbDawT2qAEYl4d46frNT5QCY9SwezhHA0Vz/UeqrI/4sXwlzna/nBMCsIwCANACzhZcDQBqA1d4aAIAyALPNN3UBQBmA2Q+/CgBpAGa/3wAAaQD26q/+DABlAGbzPgGANACzl58EgDQAm/3PdwCgDMDs8EdTAaAMwGz6BABIAzB7YgEApAFY25uDAFAGYLZ7JgCkAZhNageANACrze0HgDIAs4kvbQSAMgCzjtMBIA3A7MwhAEgDsMn3dwNAGYDZrDu7AKAMwGzKNABIAzC7bz8ApAFY52vDAFAGYHbl2wCQBpDAPSQAKDcAq/3tegAoAzDb/OsuACgDaO0eEgBUAIDZb74LAGkA9uofzwCAMgCzeR8DQBqA2cvtAJAGYLV7+wGgDMBs4htTAaAMoPGHzgKgYgDMrh0CgDQAW3fsAACUAZjNOA4AaQANPHQWANUEYLX37gCAMgCznkO9AFAGYNZxFADSAOq5hwQAlQZgk48MAEAZgNms57sAoAxgnHtIAFB9AGZXbwCANADr/MUwAJQBRD90FgAiAKIeOgsAGQA2+5p3AKAMwOzwX7oAoAxgjIfOAkALgNm/LgCANABre3YQAMoAzHY/DABpAF9+6CwAJAFY7ZV+ACgDMJv49EYAKAM4eQ8JAHQBmL07BABpALbu2CsAUAZw6gAAAAAAAAAAAAAAAAAAAAAAAAAAAB0ADwPg8/m7JIDJc7pzBDBhxJ/lm3l+/GtWmSQAsxk3dQHg9mWtHWKZAST366hKC+Cc81ebMgCrxdxKWH0AfQ8tbfkESw7ArHPxsCqArVsSOL/SAzDr+EQSwIX31AwA/5uWfx1V+QBcdutFyZxdJQDY5Guu1wKw6YGkjq4aAMw2Z5yEuQLYuS25g6sKALMpE0QAXHXzDgPAWJNlEuYGoG/7+kQPrUoArPOsM6oOYO2uhM+sUgCiny5TEQA3XJf4iVUMgNnC9soCuOTsvQaAcWf23P5qAti0PI3jKi+AidFfOTG1egBWbEvnGMsLIHipJ/Jr05dUDMBVN680AIyc071/bvS/hp+7oEIArrh0fWrHWGYA7vMXRX65Ld2FoSwBtLbyU2kA7sdnRL5gxsxKAGh15afiAHzwd+siXzJpWukBtL7yU3UA7kPPRb6mlloSZgMgiZWf6gNwv/i86CRMaWEoEwCJrPwoAPCNT0f/q8CjS0oKIKGVHwkAHp+El5cQQGIrPyIAYpMwhXtI0gaw5saMjrE6AOKTMOmFoXQB7FyW2TFWCYAfOBadhAnfQ5ImgHPO32EAaAZAfBImujCUHoC+7UuzPMaKAYhNwiTvIUkNQOIrP2oAYpMwuXtIUgKQwsqPHAD3/tejkzCphaFUAKSy8iMIwL09OglnJ3MPSRoA0ln5kQQQm4Sbk1gYSh5AWis/ogBik3D6hMIBSG/lRxWA+9APor/5waFCAUhz5UcXQGwStrV4D0miANauyu8YKw0gNgnnzSwIgFt+lucxVhtAfBJOai8AgEvOXm0ASA+Ae/uk6CRsfmEoIQB9Dy3P+RirD8B9ZnQSNn0PSTIAslj5AYD7gV/GJOGS3ABks/IDgPGSsKl7SFoHkNXKDwDGT8ImFoZaBpDZyg8APk/CE9FJ2Pg9JC0CyHDlBwBfJOErMUk4LUMAma78AKC+JGxwYagFABmv/ABgZBLujrxgQwtDzQPYuqtQx6gGwA98GJ2EDSwMNQvghutqBoA8AbgPXRt90bofOtscgDxWfgDQUBLW+9DZpgBsWl68Y5QEEJuE9T10tgkAOa38AGDsJHw8+v/F9Tx0tmEAua38AKDxJKzjobMNAshx5QcAkfP9mCQcb2GoMQB5rvwAIHoGP2yLvPw4D51tBEC+Kz8AiE3CB2OSsD0RAHmv/ACg6SSMu4ekXgD5r/wAYJyZ+kZMEkYuDNUJYMWWoh8jAOKTMOoekroAXHjPSgNA8QHEJ+HY95DUAaAgKz8AaDUJx7yHZHwARVn5AUCdSfhmTBLObBhAcVZ+AFDvLIhJwlELQ/EAirTyA4AGtjyik/DUh87GASjWyg8AEkrCkQ+djQFQsJUfADSWhD+JTsIvP3Q2EkDhVn4AkGASfvHQ2QgAl926t2THCIDR83B0Ev7/obNjA0judzoDIEcAsUl48qGzYwHYua2ExwiAsZPwieg3/uyhs6MBJPs7nQGQLwD3CdOjk/DqDaMAFHflBwDNJmHM4mjn4r+OBFDglR8ApJKEfxrxX78t7SkCoOkkrMgAoOkkBIACAB98tg0AygDcL3gCANIAYpMQAAoAfOqJwwBQBuD+o3trAFAGUNkkBED98/FuAEgDqGQSAqCxJPwDAKQBVC8JAdBwEn50GADKAD5NwtkAUAbg/uQkAOQ+Rz3POQQA5b8B3L8GAAAAAAAAAAAAAAAAAAAAAAAAAAAAAAAAAAAAAAAAAAAAAAAAAAAAAAAAAAAAAAAAAAAAAAAAAAAAAAAAAAAAAAAAAAAAAAAAAAAAAAAAAAAAAAAAAAAAAAAAAAAAAAAAAAAAAAAAAAAAAAAAAAAAAAAAAAAAAAAAAAAAAAAAAAAAAAAAAAAAAAAAAAAAAAAAAAAAAAAAAAAAAAAAAAAAAAAAAAAAAAAAAAAAAAAAAAAAAAAAAAAAAAAAAAAAAAAAAAAAAABQnuk4CgBpAGZnDgFAGoBNntMNAGUAZjNuA4A0ALNF8wEgDcBqj+0BgDIAs55DvQBQBmDW8QwApAFkn4QAKFwS3t8NAGUAZrNuA4A0gEyTEADFTMKDewCgDMCs58VeACgDyCoJASCehAAodBLe3Q0AZQBms54CgDQAsynzASANIOUkBEAZknBxLwCUAaS5OAoA8SQEQHmScAAAygDMZt0JAGkAZlOmAUAagNkj+wAgDcB6Fg8DQBmAWcddAJAGkGwSAqCUSXhkAADKAD5Nwi4AKANILAkBIJ6EACjxdL4/DABlAEkkIQDEkxAA4kkIAPEkBIB4EgKgGnPfPgBoT7NJCIDKzJUBAMSnmSQEgHgSAkA8CQEgnoQAqGAS7geAeBK+NgwAkhAA0rNwCAAkIQC0k/D5LgCQhACQng/2A4AkBABJCADpJLwcANpTe2sAACQhAEhCACjPT/cDgCQEAEkIAJIQAMJJ+OMBAGjP5pu6AEASAkA7CTcAQDwJ/zMMAPEkfBsAJCEA1JMQANrzj3sBwACAAQADAAYADAAYADAAYADAAIABAAMABgAMABgAMABgAMAAgAEAAwAGAAwAGAAwBZj/AnKLdcDYOofIAAAAAElFTkSuQmCC;" vertex="1" parent="1">
          <mxGeometry x="366.15" y="196.7" width="64.3" height="64.3" as="geometry" />
        </mxCell>
        <mxCell id="S-2BuqM_WuFqO3oSfhrL-16" value="" style="strokeColor=#dddddd;shadow=1;strokeWidth=1;rounded=1;absoluteArcSize=1;arcSize=2;" vertex="1" parent="1">
          <mxGeometry x="570" y="203.7" width="198.7" height="75" as="geometry" />
        </mxCell>
        <mxCell id="S-2BuqM_WuFqO3oSfhrL-17" value="&lt;div&gt;&lt;font style=&quot;font-size: 11px;&quot; color=&quot;#000000&quot;&gt;&lt;br&gt;&lt;/font&gt;&lt;/div&gt;&lt;font style=&quot;font-size: 11px;&quot;&gt;&lt;font color=&quot;#000000&quot;&gt;chess-deployments&lt;/font&gt;&lt;br&gt;Cloud Storage&lt;/font&gt;&lt;div&gt;&lt;font style=&quot;font-size: 11px;&quot;&gt;Deployed Script Store&lt;/font&gt;&lt;/div&gt;" style="editableCssRules=.*;html=1;fontColor=#999999;shape=image;verticalLabelPosition=middle;verticalAlign=middle;labelPosition=right;align=left;spacingLeft=20;part=1;points=[];imageAspect=0;image=data:image/svg+xml,PHN2ZyB4bWxucz0iaHR0cDovL3d3dy53My5vcmcvMjAwMC9zdmciIHhtbG5zOnY9Imh0dHBzOi8vdmVjdGEuaW8vbmFubyIgd2lkdGg9IjIwIiBoZWlnaHQ9IjE2IiB2aWV3Qm94PSIwIDAgMjAgMTYiPiYjeGE7CTxzdHlsZSB0eXBlPSJ0ZXh0L2NzcyI+JiN4YTsJLnN0MHtmaWxsOiM0Mjg1ZjQ7fSYjeGE7CS5zdDF7ZmlsbDojNjY5ZGY2O30mI3hhOwkuc3Qye2ZpbGw6I2FlY2JmYTt9JiN4YTsJLnN0M3tmaWxsOiNmZmY7fSYjeGE7CTwvc3R5bGU+JiN4YTsJPHBhdGggY2xhc3M9InN0MiIgZD0iTTAgMGgyMHY3SDB6Ii8+JiN4YTsJPHBhdGggY2xhc3M9InN0MSIgZD0iTTE4IDBoMnY3aC0yeiIvPiYjeGE7CTxwYXRoIGNsYXNzPSJzdDAiIGQ9Ik0xOCA3bDItN2gtMnoiLz4mI3hhOwk8cGF0aCBjbGFzcz0ic3QxIiBkPSJNMCAwaDJ2N0gweiIvPiYjeGE7CTxnIGNsYXNzPSJzdDMiPiYjeGE7CQk8cGF0aCBkPSJNNCAzaDZ2MUg0eiIvPiYjeGE7CQk8cmVjdCB4PSIxMyIgeT0iMiIgd2lkdGg9IjMiIGhlaWdodD0iMyIgcng9IjEuNSIvPiYjeGE7CTwvZz4mI3hhOwk8cGF0aCBjbGFzcz0ic3QyIiBkPSJNMCA5aDIwdjdIMHoiLz4mI3hhOwk8cGF0aCBjbGFzcz0ic3QxIiBkPSJNMTggOWgydjdoLTJ6Ii8+JiN4YTsJPHBhdGggY2xhc3M9InN0MCIgZD0iTTE4IDE2bDItN2gtMnoiLz4mI3hhOwk8cGF0aCBjbGFzcz0ic3QxIiBkPSJNMCA5aDJ2N0gweiIvPiYjeGE7CTxnIGNsYXNzPSJzdDMiPiYjeGE7CQk8cGF0aCBkPSJNNCAxMmg2djFINHoiLz4mI3hhOwkJPHJlY3QgeD0iMTMiIHk9IjExIiB3aWR0aD0iMyIgaGVpZ2h0PSIzIiByeD0iMS41Ii8+JiN4YTsJPC9nPiYjeGE7PC9zdmc+;" vertex="1" parent="S-2BuqM_WuFqO3oSfhrL-16">
          <mxGeometry width="30" height="24" relative="1" as="geometry">
            <mxPoint x="15" y="18" as="offset" />
          </mxGeometry>
        </mxCell>
        <mxCell id="S-2BuqM_WuFqO3oSfhrL-41" style="edgeStyle=orthogonalEdgeStyle;rounded=0;orthogonalLoop=1;jettySize=auto;html=1;exitX=1;exitY=0.5;exitDx=0;exitDy=0;entryX=-0.006;entryY=0.331;entryDx=0;entryDy=0;entryPerimeter=0;" edge="1" parent="1" source="S-2BuqM_WuFqO3oSfhrL-39" target="S-2BuqM_WuFqO3oSfhrL-16">
          <mxGeometry relative="1" as="geometry" />
        </mxCell>
        <mxCell id="S-2BuqM_WuFqO3oSfhrL-49" value="&lt;font style=&quot;font-size: 10px;&quot;&gt;Deploy the latest&amp;nbsp;&lt;/font&gt;&lt;div&gt;&lt;font style=&quot;font-size: 10px;&quot;&gt;scripts to GCS&lt;/font&gt;&lt;/div&gt;" style="edgeLabel;html=1;align=center;verticalAlign=middle;resizable=0;points=[];" vertex="1" connectable="0" parent="S-2BuqM_WuFqO3oSfhrL-41">
          <mxGeometry x="-0.2657" y="3" relative="1" as="geometry">
            <mxPoint x="15" y="-13" as="offset" />
          </mxGeometry>
        </mxCell>
        <mxCell id="S-2BuqM_WuFqO3oSfhrL-59" value="" style="group" vertex="1" connectable="0" parent="1">
          <mxGeometry x="100" y="-80" width="460" height="40" as="geometry" />
        </mxCell>
        <mxCell id="S-2BuqM_WuFqO3oSfhrL-14" value="&lt;b&gt;Google &lt;/b&gt;Cloud Platform | Project ID: checkmate-453316" style="fillColor=#F6F6F6;strokeColor=none;shadow=0;gradientColor=none;fontSize=14;align=left;spacing=10;fontColor=#717171;9E9E9E;verticalAlign=top;spacingTop=-4;fontStyle=0;spacingLeft=40;html=1;whiteSpace=wrap;container=0;" vertex="1" parent="S-2BuqM_WuFqO3oSfhrL-59">
          <mxGeometry width="460" height="40" as="geometry" />
        </mxCell>
        <mxCell id="S-2BuqM_WuFqO3oSfhrL-15" value="" style="shape=mxgraph.gcp2.google_cloud_platform;fillColor=#F6F6F6;strokeColor=none;shadow=0;gradientColor=none;" vertex="1" parent="S-2BuqM_WuFqO3oSfhrL-59">
          <mxGeometry x="20" y="8" width="23" height="20" as="geometry">
            <mxPoint x="20" y="10" as="offset" />
          </mxGeometry>
        </mxCell>
        <mxCell id="S-2BuqM_WuFqO3oSfhrL-63" style="edgeStyle=orthogonalEdgeStyle;rounded=0;orthogonalLoop=1;jettySize=auto;html=1;exitX=0;exitY=0.5;exitDx=0;exitDy=0;entryX=1;entryY=0.75;entryDx=0;entryDy=0;" edge="1" parent="1" source="S-2BuqM_WuFqO3oSfhrL-61" target="S-2BuqM_WuFqO3oSfhrL-3">
          <mxGeometry relative="1" as="geometry" />
        </mxCell>
        <mxCell id="S-2BuqM_WuFqO3oSfhrL-64" value="&lt;div&gt;&lt;font style=&quot;font-size: 10px;&quot;&gt;Pull Docker Image w/ Python Env&lt;/font&gt;&lt;/div&gt;" style="edgeLabel;html=1;align=center;verticalAlign=middle;resizable=0;points=[];" vertex="1" connectable="0" parent="S-2BuqM_WuFqO3oSfhrL-63">
          <mxGeometry x="-0.5365" y="3" relative="1" as="geometry">
            <mxPoint x="-56" y="-11" as="offset" />
          </mxGeometry>
        </mxCell>
        <mxCell id="S-2BuqM_WuFqO3oSfhrL-61" value="" style="strokeColor=#dddddd;shadow=1;strokeWidth=1;rounded=1;absoluteArcSize=1;arcSize=2;" vertex="1" parent="1">
          <mxGeometry x="720" y="335" width="170" height="60" as="geometry" />
        </mxCell>
        <mxCell id="S-2BuqM_WuFqO3oSfhrL-62" value="&lt;font style=&quot;font-size: 11px;&quot;&gt;&lt;font color=&quot;#000000&quot;&gt;Docker-Image-Name&lt;/font&gt;&lt;br&gt;Artifact Registry&lt;/font&gt;" style="editableCssRules=.*;html=1;fontColor=#999999;shape=image;verticalLabelPosition=middle;verticalAlign=middle;labelPosition=right;align=left;spacingLeft=20;part=1;points=[];imageAspect=0;image=data:image/svg+xml,PHN2ZyB4bWxucz0iaHR0cDovL3d3dy53My5vcmcvMjAwMC9zdmciIHhtbG5zOnY9Imh0dHBzOi8vdmVjdGEuaW8vbmFubyIgd2lkdGg9IjIxLjk5OTAwMDU0OTMxNjQwNiIgaGVpZ2h0PSIyMC4zOTM5OTkwOTk3MzE0NDUiIHZpZXdCb3g9IjAgMCAyMS45OTkwMDA1NDkzMTY0MDYgMjAuMzkzOTk5MDk5NzMxNDQ1Ij4mI3hhOwk8c3R5bGUgdHlwZT0idGV4dC9jc3MiPiYjeGE7CS5zdDB7ZmlsbDojNDI4NWY0O2ZpbGwtcnVsZTpldmVub2RkfSYjeGE7CTwvc3R5bGU+JiN4YTsJPHBhdGggY2xhc3M9InN0MCIgZD0iTTUgMHYyLjQ1OEwxLjk5OSA0LjE5N3YxMi4wMUw1IDE3LjkzOHYyLjQ1NmwtNS0yLjg4N1YyLjg4NnptMTIgMGw0Ljk5OSAyLjg4NnYxNC42MjFMMTcgMjAuMzk0di0yLjQ1NmwzLTEuNzMxVjQuMTk3bC0zLTEuNzM5em0tNi4wMTYgNi42NzNsMi45NDctMS42NDYtMi45NDctMS42NDYtMi45NDcgMS42NDZ6bTMuMjY4LTEuMDk2bC0yLjg3MSAxLjY3OHYzLjI4N2wyLjg3MS0xLjY3NnpNNy43NzMgOC44NjZsMi44NzEgMS42NzRWNy4yNTZMNy43NzMgNS41Nzd6bS0uMjEyIDMuODc4bDIuODItMS42NDYtMi44Mi0xLjY0Ni0yLjgyIDEuNjQ2em0zLjEzMi0xLjA5OGwtMi44NzEgMS42Nzh2My4yODdsMi44NzEtMS42NzZ6bS02LjI2NCAzLjI4OUw3LjMgMTYuNjA5di0zLjI4NWwtMi44NzEtMS42Nzl6bTEwLjAyOS0yLjE5MWwyLjgyLTEuNjQ2LTIuODItMS42NDYtMi44MiAxLjY0NnptMy4xMzItMS4wOThsLTIuODcxIDEuNjc4djMuMjg3bDIuODcxLTEuNjc2em0tNi4yNjQgMy4yODlsMi44NzEgMS42NzR2LTMuMjg1bC0yLjg3MS0xLjY3OXoiLz4mI3hhOzwvc3ZnPg==;" vertex="1" parent="S-2BuqM_WuFqO3oSfhrL-61">
          <mxGeometry width="30" height="27" relative="1" as="geometry">
            <mxPoint x="15" y="16" as="offset" />
          </mxGeometry>
        </mxCell>
        <mxCell id="S-2BuqM_WuFqO3oSfhrL-65" value="" style="group" vertex="1" connectable="0" parent="1">
          <mxGeometry x="189" y="10" width="60" height="55" as="geometry" />
        </mxCell>
        <mxCell id="S-2BuqM_WuFqO3oSfhrL-56" value="" style="sketch=0;outlineConnect=0;fontColor=#232F3E;gradientColor=none;fillColor=#232F3D;strokeColor=none;dashed=0;verticalLabelPosition=bottom;verticalAlign=top;align=center;html=1;fontSize=12;fontStyle=0;aspect=fixed;pointerEvents=1;shape=mxgraph.aws4.user;" vertex="1" parent="S-2BuqM_WuFqO3oSfhrL-65">
          <mxGeometry x="14" width="32" height="32" as="geometry" />
        </mxCell>
        <mxCell id="S-2BuqM_WuFqO3oSfhrL-57" value="&lt;font style=&quot;font-size: 10px;&quot;&gt;Developer&lt;/font&gt;" style="text;html=1;align=center;verticalAlign=middle;whiteSpace=wrap;rounded=0;" vertex="1" parent="S-2BuqM_WuFqO3oSfhrL-65">
          <mxGeometry y="36" width="60" height="8" as="geometry" />
        </mxCell>
        <mxCell id="S-2BuqM_WuFqO3oSfhrL-66" value="" style="group" vertex="1" connectable="0" parent="1">
          <mxGeometry x="540" y="10" width="60" height="55" as="geometry" />
        </mxCell>
        <mxCell id="S-2BuqM_WuFqO3oSfhrL-68" value="&lt;font style=&quot;font-size: 10px;&quot;&gt;Reviewer&lt;/font&gt;" style="text;html=1;align=center;verticalAlign=middle;whiteSpace=wrap;rounded=0;" vertex="1" parent="S-2BuqM_WuFqO3oSfhrL-66">
          <mxGeometry y="25" width="60" height="30" as="geometry" />
        </mxCell>
        <mxCell id="S-2BuqM_WuFqO3oSfhrL-67" value="" style="sketch=0;outlineConnect=0;fontColor=#232F3E;gradientColor=none;fillColor=#232F3D;strokeColor=none;dashed=0;verticalLabelPosition=bottom;verticalAlign=top;align=center;html=1;fontSize=12;fontStyle=0;aspect=fixed;pointerEvents=1;shape=mxgraph.aws4.user;" vertex="1" parent="S-2BuqM_WuFqO3oSfhrL-66">
          <mxGeometry x="14" width="32" height="32" as="geometry" />
        </mxCell>
        <mxCell id="S-2BuqM_WuFqO3oSfhrL-78" style="edgeStyle=orthogonalEdgeStyle;rounded=0;orthogonalLoop=1;jettySize=auto;html=1;entryX=0;entryY=0.25;entryDx=0;entryDy=0;" edge="1" parent="1" source="S-2BuqM_WuFqO3oSfhrL-57" target="S-2BuqM_WuFqO3oSfhrL-29">
          <mxGeometry relative="1" as="geometry" />
        </mxCell>
        <mxCell id="S-2BuqM_WuFqO3oSfhrL-85" value="&lt;font style=&quot;font-size: 10px;&quot;&gt;Push Code to&lt;b&gt; dev/feature branch&lt;/b&gt;&lt;/font&gt;" style="edgeLabel;html=1;align=center;verticalAlign=middle;resizable=0;points=[];" vertex="1" connectable="0" parent="S-2BuqM_WuFqO3oSfhrL-78">
          <mxGeometry x="-0.3777" relative="1" as="geometry">
            <mxPoint x="-43" y="12" as="offset" />
          </mxGeometry>
        </mxCell>
        <mxCell id="S-2BuqM_WuFqO3oSfhrL-80" style="edgeStyle=orthogonalEdgeStyle;rounded=0;orthogonalLoop=1;jettySize=auto;html=1;exitX=0.5;exitY=1;exitDx=0;exitDy=0;entryX=0.5;entryY=0;entryDx=0;entryDy=0;" edge="1" parent="1" target="S-2BuqM_WuFqO3oSfhrL-39">
          <mxGeometry relative="1" as="geometry">
            <mxPoint x="398.29999999999995" y="120" as="sourcePoint" />
          </mxGeometry>
        </mxCell>
        <mxCell id="S-2BuqM_WuFqO3oSfhrL-87" value="" style="edgeStyle=orthogonalEdgeStyle;rounded=0;orthogonalLoop=1;jettySize=auto;html=1;" edge="1" parent="1" source="S-2BuqM_WuFqO3oSfhrL-79" target="S-2BuqM_WuFqO3oSfhrL-39">
          <mxGeometry relative="1" as="geometry" />
        </mxCell>
        <mxCell id="S-2BuqM_WuFqO3oSfhrL-79" value="&lt;font style=&quot;text-wrap-mode: nowrap; font-size: 10px;&quot;&gt;Merge into&amp;nbsp;&lt;b&gt;main&lt;/b&gt;&lt;/font&gt;&lt;div style=&quot;font-size: 11px; text-wrap-mode: nowrap;&quot;&gt;&lt;i&gt;&lt;font style=&quot;font-size: 10px;&quot;&gt;Trigger CI/CD Process&lt;/font&gt;&lt;/i&gt;&lt;/div&gt;" style="rounded=0;whiteSpace=wrap;html=1;" vertex="1" parent="1">
          <mxGeometry x="338.3" y="130" width="120" height="30" as="geometry" />
        </mxCell>
        <mxCell id="S-2BuqM_WuFqO3oSfhrL-81" style="edgeStyle=orthogonalEdgeStyle;rounded=0;orthogonalLoop=1;jettySize=auto;html=1;exitX=1;exitY=0.25;exitDx=0;exitDy=0;" edge="1" parent="1" source="S-2BuqM_WuFqO3oSfhrL-29" target="S-2BuqM_WuFqO3oSfhrL-68">
          <mxGeometry relative="1" as="geometry">
            <mxPoint x="220" y="110" as="targetPoint" />
          </mxGeometry>
        </mxCell>
        <mxCell id="S-2BuqM_WuFqO3oSfhrL-84" style="edgeStyle=orthogonalEdgeStyle;rounded=0;orthogonalLoop=1;jettySize=auto;html=1;exitX=0.5;exitY=1;exitDx=0;exitDy=0;entryX=1;entryY=0.75;entryDx=0;entryDy=0;" edge="1" parent="1" source="S-2BuqM_WuFqO3oSfhrL-91" target="S-2BuqM_WuFqO3oSfhrL-29">
          <mxGeometry relative="1" as="geometry">
            <mxPoint x="500" y="80" as="targetPoint" />
            <Array as="points">
              <mxPoint x="640" y="90" />
              <mxPoint x="640" y="90" />
            </Array>
          </mxGeometry>
        </mxCell>
        <mxCell id="S-2BuqM_WuFqO3oSfhrL-90" value="Yes | Merging PR" style="edgeLabel;html=1;align=center;verticalAlign=middle;resizable=0;points=[];" vertex="1" connectable="0" parent="S-2BuqM_WuFqO3oSfhrL-84">
          <mxGeometry x="-0.6273" y="2" relative="1" as="geometry">
            <mxPoint x="-48" y="-2" as="offset" />
          </mxGeometry>
        </mxCell>
        <mxCell id="S-2BuqM_WuFqO3oSfhrL-88" style="edgeStyle=orthogonalEdgeStyle;rounded=0;orthogonalLoop=1;jettySize=auto;html=1;entryX=0;entryY=0.5;entryDx=0;entryDy=0;exitX=0.5;exitY=0;exitDx=0;exitDy=0;" edge="1" parent="1" source="S-2BuqM_WuFqO3oSfhrL-91" target="S-2BuqM_WuFqO3oSfhrL-57">
          <mxGeometry relative="1" as="geometry">
            <mxPoint x="690" y="20" as="sourcePoint" />
            <mxPoint x="189" y="60" as="targetPoint" />
            <Array as="points">
              <mxPoint x="705" y="-10" />
              <mxPoint x="160" y="-10" />
              <mxPoint x="160" y="50" />
            </Array>
          </mxGeometry>
        </mxCell>
        <mxCell id="S-2BuqM_WuFqO3oSfhrL-89" value="&lt;span style=&quot;background-color: light-dark(#ffffff, var(--ge-dark-color, #121212)); color: light-dark(rgb(0, 0, 0), rgb(255, 255, 255));&quot;&gt;No | F&lt;/span&gt;&lt;span style=&quot;background-color: light-dark(#ffffff, var(--ge-dark-color, #121212)); color: light-dark(rgb(0, 0, 0), rgb(255, 255, 255));&quot;&gt;eedback Loop&lt;/span&gt;" style="edgeLabel;html=1;align=center;verticalAlign=middle;resizable=0;points=[];" vertex="1" connectable="0" parent="S-2BuqM_WuFqO3oSfhrL-88">
          <mxGeometry x="-0.0728" y="-1" relative="1" as="geometry">
            <mxPoint x="151" y="-9" as="offset" />
          </mxGeometry>
        </mxCell>
        <mxCell id="S-2BuqM_WuFqO3oSfhrL-96" value="Apply Feedback" style="edgeLabel;html=1;align=center;verticalAlign=middle;resizable=0;points=[];" vertex="1" connectable="0" parent="S-2BuqM_WuFqO3oSfhrL-88">
          <mxGeometry x="0.5" y="2" relative="1" as="geometry">
            <mxPoint x="-14" y="-12" as="offset" />
          </mxGeometry>
        </mxCell>
        <mxCell id="S-2BuqM_WuFqO3oSfhrL-91" value="&lt;font style=&quot;font-size: 11px;&quot;&gt;Adequate&amp;nbsp;&lt;/font&gt;&lt;div&gt;&lt;font style=&quot;font-size: 11px;&quot;&gt;Revisions?&lt;/font&gt;&lt;/div&gt;" style="rhombus;whiteSpace=wrap;html=1;" vertex="1" parent="1">
          <mxGeometry x="650" y="10" width="110" height="80" as="geometry" />
        </mxCell>
        <mxCell id="S-2BuqM_WuFqO3oSfhrL-92" style="edgeStyle=orthogonalEdgeStyle;rounded=0;orthogonalLoop=1;jettySize=auto;html=1;exitX=1;exitY=0.5;exitDx=0;exitDy=0;entryX=0;entryY=0.5;entryDx=0;entryDy=0;" edge="1" parent="1" source="S-2BuqM_WuFqO3oSfhrL-68" target="S-2BuqM_WuFqO3oSfhrL-91">
          <mxGeometry relative="1" as="geometry" />
        </mxCell>
        <mxCell id="S-2BuqM_WuFqO3oSfhrL-95" style="edgeStyle=orthogonalEdgeStyle;rounded=0;orthogonalLoop=1;jettySize=auto;html=1;exitX=0.5;exitY=1;exitDx=0;exitDy=0;entryX=0.5;entryY=0;entryDx=0;entryDy=0;" edge="1" parent="1" source="S-2BuqM_WuFqO3oSfhrL-29" target="S-2BuqM_WuFqO3oSfhrL-79">
          <mxGeometry relative="1" as="geometry" />
        </mxCell>
      </root>
    </mxGraphModel>
  </diagram>
</mxfile>
